<svg xmlns="http://www.w3.org/2000/svg" width="9" height="16" viewBox="0 0 9 16">
  <metadata><?xpacket begin="﻿" id="W5M0MpCehiHzreSzNTczkc9d"?>
<x:xmpmeta xmlns:x="adobe:ns:meta/" x:xmptk="Adobe XMP Core 5.6-c142 79.160924, 2017/07/13-01:06:39        ">
   <rdf:RDF xmlns:rdf="http://www.w3.org/1999/02/22-rdf-syntax-ns#">
      <rdf:Description rdf:about=""/>
   </rdf:RDF>
</x:xmpmeta>
                                                                                                    
                                                                                                    
                                                                                                    
                                                                                                    
                                                                                                    
                                                                                                    
                                                                                                    
                                                                                                    
                                                                                                    
                                                                                                    
                                                                                                    
                                                                                                    
                                                                                                    
                                                                                                    
                                                                                                    
                                                                                                    
                                                                                                    
                                                                                                    
                                                                                                    
                                                                                                    
                           
<?xpacket end="w"?></metadata>
<defs>
    <style>
      .cls-1 {
        fill: #008ed6;
        fill-rule: evenodd;
      }
    </style>
  </defs>
  <path id="Mouse" class="cls-1" d="M743.035,1627.78a3.48,3.48,0,0,1,3.474,3.48v7.05a3.478,3.478,0,0,1-3.474,3.47,3.52,3.52,0,0,1-3.523-3.47v-7.05a3.522,3.522,0,0,1,3.523-3.48m0-1a4.515,4.515,0,0,0-4.523,4.48v7.05a4.5,4.5,0,0,0,9,0v-7.05a4.473,4.473,0,0,0-4.474-4.48h0Zm-0.019,3a0.5,0.5,0,0,1,.5.5v2.5a0.5,0.5,0,0,1-1,0v-2.5A0.5,0.5,0,0,1,743.016,1629.78Z" transform="translate(-738.5 -1626.78)"/>
</svg>
