<svg xmlns="http://www.w3.org/2000/svg" width="18" height="32" viewBox="0 0 18 32">
  <metadata><?xpacket begin="﻿" id="W5M0MpCehiHzreSzNTczkc9d"?>
<x:xmpmeta xmlns:x="adobe:ns:meta/" x:xmptk="Adobe XMP Core 5.6-c142 79.160924, 2017/07/13-01:06:39        ">
   <rdf:RDF xmlns:rdf="http://www.w3.org/1999/02/22-rdf-syntax-ns#">
      <rdf:Description rdf:about=""/>
   </rdf:RDF>
</x:xmpmeta>
                                                                                                    
                                                                                                    
                                                                                                    
                                                                                                    
                                                                                                    
                                                                                                    
                                                                                                    
                                                                                                    
                                                                                                    
                                                                                                    
                                                                                                    
                                                                                                    
                                                                                                    
                                                                                                    
                                                                                                    
                                                                                                    
                                                                                                    
                                                                                                    
                                                                                                    
                                                                                                    
                           
<?xpacket end="w"?></metadata>
<defs>
    <style>
      .cls-1 {
        fill: #008ed6;
        fill-rule: evenodd;
      }
    </style>
  </defs>
  <path id="Phone" class="cls-1" d="M326,4270a1,1,0,0,1,1,1v26a1,1,0,0,1-1,1H313.994a1,1,0,0,1-1-1v-26a1,1,0,0,1,1-1H326m0-2H313.994a3,3,0,0,0-3,3v26a3,3,0,0,0,3,3H326a3,3,0,0,0,3-3v-26a3,3,0,0,0-3-3h0Zm-8,27a2,2,0,1,0,2-1.99A1.992,1.992,0,0,0,318.005,4295Zm0-24h4a1,1,0,0,1,0,2h-4A1,1,0,0,1,318,4271Z" transform="translate(-311 -4268)"/>
</svg>
