<svg xmlns="http://www.w3.org/2000/svg" width="24" height="32" viewBox="0 0 24 32">
  <metadata><?xpacket begin="﻿" id="W5M0MpCehiHzreSzNTczkc9d"?>
<x:xmpmeta xmlns:x="adobe:ns:meta/" x:xmptk="Adobe XMP Core 5.6-c142 79.160924, 2017/07/13-01:06:39        ">
   <rdf:RDF xmlns:rdf="http://www.w3.org/1999/02/22-rdf-syntax-ns#">
      <rdf:Description rdf:about=""/>
   </rdf:RDF>
</x:xmpmeta>
                                                                                                    
                                                                                                    
                                                                                                    
                                                                                                    
                                                                                                    
                                                                                                    
                                                                                                    
                                                                                                    
                                                                                                    
                                                                                                    
                                                                                                    
                                                                                                    
                                                                                                    
                                                                                                    
                                                                                                    
                                                                                                    
                                                                                                    
                                                                                                    
                                                                                                    
                                                                                                    
                           
<?xpacket end="w"?></metadata>
<defs>
    <style>
      .cls-1 {
        fill: #008ed6;
        fill-rule: evenodd;
      }
    </style>
  </defs>
  <path id="Pointer" class="cls-1" d="M12.125,1.988c6.829,0,9.885,5.125,9.885,10.2,0,4.475-3.19,10.415-9.483,17.657a1.045,1.045,0,0,1-.131.107,1.105,1.105,0,0,1-.133-0.107l-0.524-.6C7.633,24.538,2.01,18.087,2.01,12.193a10.3,10.3,0,0,1,10.115-10.2m0-2A12.327,12.327,0,0,0,.01,12.193c0,6.93,6.439,14.017,10.769,19a2.445,2.445,0,0,0,1.579.8h0.076a2.435,2.435,0,0,0,1.575-.8c4.064-4.673,10-12.377,10-19s-4.333-12.2-11.885-12.2h0ZM12,8a4.022,4.022,0,0,1,.046,8.044A4.081,4.081,0,0,1,8,12a4,4,0,0,1,4-4m0.046-1.956a6,6,0,1,0,6,6,6,6,0,0,0-6-6h0Z"/>
</svg>
